<svg id="Layer_1" data-name="Layer 1" xmlns="http://www.w3.org/2000/svg" viewBox="0 0 1000.46 224.08"><defs><style>.cls-1{fill:#73c48f}</style></defs><path class="cls-1" d="M16.49 35.33l-16.2-10v-8.25L61.84 0h10.3L71 28.56C79.21 15.31 95.4 0 120.43 0c34.75 0 59.48 24.15 59.48 72.44 0 60.36-36.8 92.16-83.33 92.16-11.19 0-20.61-2.06-25.62-6.18v41.52c0 10.6 5.3 11.18 22.68 12.66v11.48H0V212.6c11.78-.89 16.49-2.06 16.49-11.49zm108.07 53.6c0-38.87-13.84-56.83-36.22-56.83a30.65 30.65 0 0 0-17.34 5v82.74c0 19.14 5.3 30.92 20.91 30.92 21.16 0 32.65-27.09 32.65-61.83zM260 134.27c0 12.66 6.78 13.84 23.56 15.9v11.49h-94.23v-11.49c11.77-.88 16.48-2.06 16.48-11.48V35.33l-16.19-10v-8.25L251.16 0h10L260 45.35C272.07 10.89 282.37 0 300.92 0c6.78 0 11.78 2.06 14.73 5v40.94h-7.07c-18.55 0-35 .58-48.59 10.6zM320.06 85.39C320.06 35.92 354.22 0 402.51 0c48.58 0 82.15 30.92 82.15 79.21 0 49.47-34.16 85.39-82.45 85.39-48.58 0-82.15-30.92-82.15-79.21zM427 92.17c0-48.3-6.77-79.8-25.91-79.8-17.67 0-23.27 22.67-23.27 60.07 0 48.29 7.07 79.79 25.92 79.79 17.61 0 23.26-22.67 23.26-60.06zM508.51 35.33l-16.2-10v-8.25L553.85 0h10.31L563 28.56C571.23 15.31 587.42 0 612.45 0c34.75 0 59.48 24.15 59.48 72.44 0 60.36-36.81 92.16-83.33 92.16-11.19 0-20.61-2.06-25.62-6.18v41.52c0 10.6 5.3 11.18 22.68 12.66v11.48H492V212.6c11.78-.89 16.49-2.06 16.49-11.49zm108.06 53.6c0-38.87-13.84-56.83-36.21-56.83a30.65 30.65 0 0 0-17.38 5v82.74c0 19.14 5.3 30.92 20.91 30.92 21.2 0 32.68-27.09 32.68-61.83zM833.05 64.49v7.36h-93.93c-.59 35 18.84 56.83 45.64 56.83 18.84 0 32.68-6.77 43.87-21.5l5.6 3.54c-8 32.39-30.63 53.88-67.73 53.88-43.58 0-76.5-29.15-76.5-78.6 0-52.41 36.21-86 78.61-86 42.65 0 64.44 27.09 64.44 64.49zm-93.64-6.19h47.12c0-28.56-5.6-45.93-21.5-45.93-16.19 0-24.14 18.55-25.62 45.93zM912.84 134.27c0 12.66 6.77 13.84 23.56 15.9v11.49h-94.23v-11.49c11.78-.88 16.49-2.06 16.49-11.48V35.33l-16.2-10v-8.25L904 0h10l-1.18 45.35C924.91 10.89 935.22 0 953.77 0c6.77 0 11.78 2.06 14.72 5v40.94h-7.07c-18.55 0-35 .58-48.58 10.6zM974.55 143.83h-6.06v17.83h-4v-17.83h-6.06v-3.62h16.17zM1000.46 161.66h-4v-14.25h-.24l-5.33 11.8h-4.08l-5.36-11.8h-.24v14.25h-4v-21.45h5l6.52 14.71h.27l6.49-14.71h4.93z"/></svg>